<svg width="500" height="500" viewBox="0 0 500 500" fill="none" xmlns="http://www.w3.org/2000/svg">
<path d="M192.352 383.359C191.712 384.799 190.88 386.079 189.856 387.199C188.832 388.287 187.696 389.215 186.448 389.983C185.2 390.751 183.856 391.327 182.416 391.711C180.976 392.095 179.52 392.287 178.048 392.287C174.912 392.287 172.48 391.359 170.752 389.503C169.024 387.615 168.16 384.623 168.16 380.527C168.16 379.087 168.272 377.471 168.496 375.679C168.752 373.855 169.152 372.031 169.696 370.207C170.24 368.351 170.944 366.543 171.808 364.783C172.672 363.023 173.728 361.455 174.976 360.079C176.224 358.703 177.68 357.599 179.344 356.767C181.04 355.935 182.96 355.519 185.104 355.519C186.16 355.519 187.168 355.647 188.128 355.903C189.088 356.127 189.92 356.495 190.624 357.007C191.328 357.519 191.888 358.191 192.304 359.023C192.72 359.855 192.928 360.863 192.928 362.047C192.928 363.263 192.672 364.287 192.16 365.119C191.648 365.951 190.784 366.367 189.568 366.367C189.184 366.367 188.8 366.303 188.416 366.175C188.064 366.015 187.776 365.791 187.552 365.503C188 365.247 188.448 364.639 188.896 363.679C189.376 362.719 189.616 361.647 189.616 360.463C189.616 359.407 189.296 358.607 188.656 358.063C188.048 357.519 187.184 357.247 186.064 357.247C184.784 357.247 183.6 357.583 182.512 358.255C181.424 358.927 180.432 359.839 179.536 360.991C178.64 362.143 177.84 363.471 177.136 364.975C176.464 366.479 175.888 368.079 175.408 369.775C174.928 371.471 174.56 373.199 174.304 374.959C174.08 376.687 173.968 378.351 173.968 379.951C173.968 381.071 174.048 382.159 174.208 383.215C174.368 384.239 174.704 385.167 175.216 385.999C175.76 386.799 176.528 387.439 177.52 387.919C178.512 388.399 179.824 388.639 181.456 388.639C183.664 388.639 185.536 388.175 187.072 387.247C188.608 386.287 190 384.831 191.248 382.879L192.352 383.359ZM212.073 367.519L208.569 383.839C208.409 384.479 208.329 385.199 208.329 385.999C208.329 386.543 208.425 387.039 208.617 387.487C208.809 387.935 209.209 388.159 209.817 388.159C210.585 388.159 211.353 387.695 212.121 386.767C212.921 385.839 213.673 384.559 214.377 382.927H216.153C215.385 384.943 214.617 386.543 213.849 387.727C213.081 388.879 212.329 389.759 211.593 390.367C210.889 390.975 210.201 391.359 209.529 391.519C208.889 391.711 208.313 391.807 207.801 391.807C206.745 391.807 205.865 391.439 205.161 390.703C204.489 389.967 204.089 388.767 203.961 387.103C203.225 388.415 202.201 389.535 200.889 390.463C199.609 391.359 198.201 391.807 196.665 391.807C195.897 391.807 195.145 391.679 194.409 391.423C193.673 391.135 193.017 390.687 192.441 390.079C191.865 389.439 191.401 388.639 191.049 387.679C190.697 386.687 190.521 385.487 190.521 384.079C190.521 382.991 190.633 381.823 190.857 380.575C191.113 379.327 191.465 378.079 191.913 376.831C192.361 375.583 192.937 374.383 193.641 373.231C194.345 372.079 195.145 371.071 196.041 370.207C196.937 369.311 197.945 368.607 199.065 368.095C200.217 367.551 201.465 367.279 202.809 367.279C203.577 367.279 204.361 367.455 205.161 367.807C205.961 368.159 206.489 368.831 206.745 369.823L207.225 367.519H212.073ZM198.681 388.159C199.193 388.159 199.721 388.031 200.265 387.775C200.809 387.487 201.321 387.119 201.801 386.671C202.313 386.191 202.761 385.631 203.145 384.991C203.529 384.351 203.801 383.663 203.961 382.927L206.265 372.031C206.169 371.487 205.929 371.007 205.545 370.591C205.161 370.143 204.601 369.919 203.865 369.919C202.553 369.919 201.385 370.399 200.361 371.359C199.337 372.319 198.473 373.487 197.769 374.863C197.065 376.239 196.537 377.711 196.185 379.279C195.833 380.847 195.657 382.223 195.657 383.407C195.657 385.231 195.929 386.479 196.473 387.151C197.017 387.823 197.753 388.159 198.681 388.159ZM222.458 367.519L221.594 371.455C222.042 370.943 222.506 370.447 222.986 369.967C223.466 369.455 223.962 369.007 224.474 368.623C225.018 368.207 225.578 367.887 226.154 367.663C226.73 367.407 227.354 367.279 228.026 367.279C228.986 367.279 229.674 367.503 230.09 367.951C230.506 368.367 230.714 368.895 230.714 369.535C230.714 370.143 230.602 370.655 230.378 371.071C230.186 371.455 229.946 371.775 229.658 372.031C229.37 372.255 229.066 372.415 228.746 372.511C228.426 372.607 228.154 372.655 227.93 372.655C227.642 372.655 227.418 372.591 227.258 372.463C227.13 372.335 226.986 372.207 226.826 372.079C226.698 371.919 226.538 371.775 226.346 371.647C226.154 371.519 225.882 371.455 225.53 371.455C224.826 371.455 224.074 371.711 223.274 372.223C222.506 372.703 221.786 373.231 221.114 373.807L217.322 391.519H212.522L217.61 367.519H222.458ZM253.559 357.919L247.991 383.839C247.927 384.191 247.879 384.543 247.847 384.895C247.815 385.247 247.799 385.583 247.799 385.903C247.799 386.575 247.911 387.119 248.135 387.535C248.391 387.951 248.839 388.159 249.479 388.159C249.703 388.159 249.927 388.143 250.151 388.111C250.407 388.079 250.695 387.999 251.015 387.871C250.631 389.407 250.119 390.447 249.479 390.991C248.839 391.535 248.087 391.807 247.223 391.807C246.167 391.807 245.287 391.439 244.583 390.703C243.911 389.967 243.511 388.767 243.383 387.103C242.647 388.415 241.623 389.535 240.311 390.463C239.031 391.359 237.623 391.807 236.087 391.807C235.319 391.807 234.567 391.679 233.831 391.423C233.095 391.135 232.439 390.687 231.863 390.079C231.287 389.439 230.823 388.639 230.471 387.679C230.119 386.687 229.943 385.487 229.943 384.079C229.943 382.991 230.055 381.823 230.279 380.575C230.535 379.327 230.887 378.079 231.335 376.831C231.783 375.583 232.359 374.383 233.063 373.231C233.767 372.079 234.567 371.071 235.463 370.207C236.359 369.311 237.367 368.607 238.487 368.095C239.639 367.551 240.887 367.279 242.231 367.279C243.031 367.279 243.815 367.455 244.583 367.807C245.383 368.159 245.911 368.847 246.167 369.871L248.567 358.591L253.559 357.919ZM238.103 388.159C238.583 388.159 239.095 388.031 239.639 387.775C240.215 387.487 240.743 387.119 241.223 386.671C241.735 386.191 242.183 385.631 242.567 384.991C242.951 384.351 243.223 383.663 243.383 382.927L245.687 372.031C245.623 371.519 245.383 371.039 244.967 370.591C244.583 370.143 244.023 369.919 243.287 369.919C241.975 369.919 240.807 370.399 239.783 371.359C238.759 372.319 237.895 373.487 237.191 374.863C236.487 376.239 235.959 377.711 235.607 379.279C235.255 380.847 235.079 382.223 235.079 383.407C235.079 385.231 235.351 386.479 235.895 387.151C236.439 387.823 237.175 388.159 238.103 388.159ZM281.972 391.519L285.62 374.287C284.532 373.679 283.22 373.167 281.684 372.751C280.148 372.335 278.596 372.047 277.028 371.887C276.1 373.743 275.236 375.663 274.436 377.647C273.668 379.599 272.996 381.535 272.42 383.455C271.844 385.343 271.38 387.167 271.028 388.927C270.708 390.687 270.548 392.287 270.548 393.727C270.548 395.007 270.692 396.095 270.98 396.991C270.372 396.991 269.748 396.927 269.108 396.799C268.468 396.703 267.876 396.463 267.332 396.079C266.82 395.727 266.388 395.215 266.036 394.543C265.716 393.903 265.556 393.023 265.556 391.903C265.556 390.783 265.732 389.455 266.084 387.919C266.468 386.383 266.98 384.735 267.62 382.975C268.26 381.183 269.028 379.327 269.924 377.407C270.852 375.487 271.876 373.583 272.996 371.695C272.036 371.727 271.124 371.823 270.26 371.983C269.428 372.143 268.692 372.351 268.052 372.607C267.412 372.863 266.9 373.167 266.516 373.519C266.164 373.871 265.988 374.255 265.988 374.671C266.436 374.831 266.708 375.023 266.804 375.247C266.9 375.471 266.948 375.679 266.948 375.871C266.948 376.607 266.692 377.119 266.18 377.407C265.668 377.663 265.14 377.791 264.596 377.791C263.924 377.791 263.316 377.615 262.772 377.263C262.228 376.879 261.956 376.223 261.956 375.295C261.956 374.431 262.228 373.663 262.772 372.991C263.284 372.287 264.004 371.695 264.932 371.215C265.86 370.735 266.948 370.367 268.196 370.111C269.444 369.855 270.772 369.727 272.18 369.727C272.5 369.727 272.82 369.743 273.14 369.775C273.46 369.775 273.796 369.791 274.148 369.823C275.364 367.871 276.66 366.031 278.036 364.303C279.412 362.575 280.82 361.071 282.26 359.791C283.7 358.479 285.156 357.439 286.628 356.671C288.132 355.903 289.604 355.519 291.044 355.519C291.524 355.519 292.116 355.567 292.82 355.663C293.524 355.759 294.164 355.935 294.74 356.191L287.204 391.519H281.972ZM277.844 370.303C279.412 370.559 280.9 370.911 282.308 371.359C283.748 371.807 284.948 372.287 285.908 372.799L289.076 357.871C288.244 357.903 287.364 358.255 286.436 358.927C285.508 359.567 284.548 360.447 283.556 361.567C282.596 362.687 281.62 363.999 280.628 365.503C279.668 366.975 278.74 368.575 277.844 370.303ZM302.014 365.743L301.198 369.439C301.934 368.799 302.75 368.287 303.646 367.903C304.574 367.487 305.566 367.279 306.622 367.279C307.454 367.279 308.222 367.423 308.926 367.711C309.63 367.999 310.238 368.463 310.75 369.103C311.262 369.743 311.662 370.575 311.95 371.599C312.238 372.591 312.382 373.823 312.382 375.295C312.382 376.319 312.302 377.439 312.142 378.655C311.982 379.871 311.726 381.103 311.374 382.351C311.022 383.567 310.542 384.751 309.934 385.903C309.358 387.023 308.638 388.031 307.774 388.927C306.91 389.791 305.902 390.495 304.75 391.039C303.598 391.551 302.286 391.807 300.814 391.807C299.95 391.807 299.198 391.599 298.558 391.183C297.95 390.735 297.422 390.159 296.974 389.455L294.238 402.319L289.15 403.519L297.166 365.743H302.014ZM304.318 370.399C303.582 370.399 302.894 370.607 302.254 371.023C301.646 371.439 301.07 372.015 300.526 372.751L297.454 387.055C297.806 387.663 298.222 388.095 298.702 388.351C299.214 388.607 299.662 388.735 300.046 388.735C301.486 388.735 302.686 388.255 303.646 387.295C304.606 386.303 305.374 385.119 305.95 383.743C306.558 382.335 306.99 380.879 307.246 379.375C307.502 377.839 307.63 376.511 307.63 375.391C307.63 374.431 307.534 373.631 307.342 372.991C307.15 372.351 306.894 371.839 306.574 371.455C306.254 371.071 305.902 370.799 305.518 370.639C305.134 370.479 304.734 370.399 304.318 370.399ZM322.311 365.743L321.495 369.439C322.231 368.799 323.047 368.287 323.943 367.903C324.871 367.487 325.863 367.279 326.919 367.279C327.751 367.279 328.519 367.423 329.223 367.711C329.927 367.999 330.535 368.463 331.047 369.103C331.559 369.743 331.959 370.575 332.247 371.599C332.535 372.591 332.679 373.823 332.679 375.295C332.679 376.319 332.599 377.439 332.439 378.655C332.279 379.871 332.023 381.103 331.671 382.351C331.319 383.567 330.839 384.751 330.231 385.903C329.655 387.023 328.935 388.031 328.071 388.927C327.207 389.791 326.199 390.495 325.047 391.039C323.895 391.551 322.583 391.807 321.111 391.807C320.247 391.807 319.495 391.599 318.855 391.183C318.247 390.735 317.719 390.159 317.271 389.455L314.535 402.319L309.447 403.519L317.463 365.743H322.311ZM324.615 370.399C323.879 370.399 323.191 370.607 322.551 371.023C321.943 371.439 321.367 372.015 320.823 372.751L317.751 387.055C318.103 387.663 318.519 388.095 318.999 388.351C319.511 388.607 319.959 388.735 320.343 388.735C321.783 388.735 322.983 388.255 323.943 387.295C324.903 386.303 325.671 385.119 326.247 383.743C326.855 382.335 327.287 380.879 327.543 379.375C327.799 377.839 327.927 376.511 327.927 375.391C327.927 374.431 327.831 373.631 327.639 372.991C327.447 372.351 327.191 371.839 326.871 371.455C326.551 371.071 326.199 370.799 325.815 370.639C325.431 370.479 325.031 370.399 324.615 370.399Z" fill="white"/>
<rect x="244.811" y="123.668" width="187" height="118.282" rx="18" transform="rotate(25.6185 244.811 123.668)" stroke="white" stroke-width="4"/>
<line x1="231.047" y1="155.73" x2="398.047" y2="232.73" stroke="white" stroke-width="5"/>
<line x1="225.047" y1="167.73" x2="392.047" y2="244.73" stroke="white" stroke-width="5"/>
<rect x="118.046" y="219.369" width="187.005" height="116.281" rx="23" transform="rotate(-1.32476 118.046 219.369)" fill="url(#paint0_linear)" stroke="white" stroke-width="4"/>
<line x1="288" y1="249.5" x2="138" y2="249.5" stroke="white" stroke-width="5"/>
<path d="M163.5 276.5C163.5 277.993 162.697 279.459 161.171 280.603C159.645 281.748 157.468 282.5 155 282.5C152.532 282.5 150.355 281.748 148.829 280.603C147.303 279.459 146.5 277.993 146.5 276.5C146.5 275.007 147.303 273.541 148.829 272.397C150.355 271.252 152.532 270.5 155 270.5C157.468 270.5 159.645 271.252 161.171 272.397C162.697 273.541 163.5 275.007 163.5 276.5Z" stroke="white" stroke-width="3"/>
<path d="M199.5 276.5C199.5 277.993 198.697 279.459 197.171 280.603C195.645 281.748 193.468 282.5 191 282.5C188.532 282.5 186.355 281.748 184.829 280.603C183.303 279.459 182.5 277.993 182.5 276.5C182.5 275.007 183.303 273.541 184.829 272.397C186.355 271.252 188.532 270.5 191 270.5C193.468 270.5 195.645 271.252 197.171 272.397C198.697 273.541 199.5 275.007 199.5 276.5Z" stroke="white" stroke-width="3"/>
<path d="M235.5 276.5C235.5 277.993 234.697 279.459 233.171 280.603C231.645 281.748 229.468 282.5 227 282.5C224.532 282.5 222.355 281.748 220.829 280.603C219.303 279.459 218.5 277.993 218.5 276.5C218.5 275.007 219.303 273.541 220.829 272.397C222.355 271.252 224.532 270.5 227 270.5C229.468 270.5 231.645 271.252 233.171 272.397C234.697 273.541 235.5 275.007 235.5 276.5Z" stroke="white" stroke-width="3"/>
<rect x="254.5" y="270.5" width="34" height="26" rx="6.5" stroke="white" stroke-width="3"/>
<line x1="234.045" y1="297.999" x2="145.045" y2="299.999" stroke="white" stroke-width="4"/>
<line x1="234.045" y1="311.999" x2="145.045" y2="314" stroke="white" stroke-width="4"/>
<line x1="291" y1="312" x2="253" y2="312" stroke="white" stroke-width="4"/>
<defs>
<linearGradient id="paint0_linear" x1="211.502" y1="217.416" x2="211.502" y2="337.697" gradientUnits="userSpaceOnUse">
<stop stop-color="#0043A5"/>
<stop offset="1" stop-color="#025AC1"/>
</linearGradient>
</defs>
</svg>
